<?xml version="1.0" encoding="UTF-8" standalone="no"?>
<svg
   xmlns:dc="http://purl.org/dc/elements/1.1/"
   xmlns:cc="http://creativecommons.org/ns#"
   xmlns:rdf="http://www.w3.org/1999/02/22-rdf-syntax-ns#"
   xmlns:svg="http://www.w3.org/2000/svg"
   xmlns="http://www.w3.org/2000/svg"
   version="1.1"
   id="svg6905"
   viewBox="0 0 592 180"
   height="180"
   width="592">
  <defs
     id="defs6907">
    <radialGradient
       id="radialGradient4158-9"
       spreadMethod="pad"
       gradientTransform="matrix(215.28502,0,0,215.28502,296.21513,963.24752)"
       gradientUnits="userSpaceOnUse"
       r="1"
       cy="0"
       cx="0"
       fy="0"
       fx="0">
      <stop
         id="stop4160-7"
         offset="0"
         style="stop-opacity:1;stop-color:#ffffff" />
      <stop
         id="stop4162-6"
         offset="1"
         style="stop-opacity:1;stop-color:#fff000" />
    </radialGradient>
    <filter
       id="filter7906"
       style="color-interpolation-filters:sRGB">
      <feFlood
         id="feFlood7908"
         result="flood"
         flood-color="rgb(255,240,0)"
         flood-opacity="1" />
      <feComposite
         id="feComposite7910"
         result="composite1"
         operator="in"
         in2="SourceGraphic"
         in="flood" />
      <feGaussianBlur
         id="feGaussianBlur7912"
         result="blur"
         stdDeviation="1"
         in="composite1" />
      <feOffset
         id="feOffset7914"
         result="offset"
         dy="1"
         dx="1" />
      <feComposite
         id="feComposite7916"
         result="composite2"
         operator="over"
         in2="offset"
         in="SourceGraphic" />
    </filter>
  </defs>
  <metadata
     id="metadata6910">
    <rdf:RDF>
      <cc:Work
         rdf:about="">
        <dc:format>image/svg+xml</dc:format>
        <dc:type
           rdf:resource="http://purl.org/dc/dcmitype/StillImage" />
        <dc:title></dc:title>
      </cc:Work>
    </rdf:RDF>
  </metadata>
  <g
     style="display:inline"
     transform="translate(0,-872.3622)"
     id="layer1">
    <path
       id="path4164"
       style="display:inline;fill:url(#radialGradient4158-9);stroke:#eb192d;stroke-width:5.01750469;stroke-miterlimit:4;stroke-dasharray:none;stroke-opacity:1"
       d="m 66.408397,876.66147 c -34.145567,0 -62.0803597,27.93693 -62.0803597,62.08275 l 0,0 0,22.74614 c 0,34.14513 27.9347927,62.08034 62.0803597,62.08034 l 0,0 62.517323,0 25.77537,23.8248 c 3.51405,3.2488 9.21055,3.2488 12.72673,0 l 0,0 25.79627,-23.8248 332.79913,0 c 34.1435,0 62.08042,-27.93521 62.08042,-62.08034 l 0,0 0,-22.74614 c 0,-34.14582 -27.93692,-62.08275 -62.08042,-62.08275 l 0,0 -459.614823,0 z" />
  </g>
  <g
     transform="translate(0,128)"
     id="layer6">
    <path
       id="path4188"
       d="m 539.3217,-99.740574 c -4.46106,0 -8.0777,3.60968 -8.0777,8.071154 0,4.464953 3.61664,8.080896 8.0777,8.080896 4.45893,0 8.07439,-3.615943 8.07439,-8.080896 0,-4.461474 -3.61546,-8.071154 -8.07439,-8.071154 z m -0.50979,3.158731 c 1.81869,0 3.01235,0.267925 3.81508,0.806559 0.64598,0.442946 1.03544,1.112759 1.03544,1.887653 0,1.290216 -1.09473,2.152099 -2.46609,2.505621 l 0,0.06263 c 0.99922,0.260966 1.60497,0.96453 1.92064,1.989256 0.42864,1.375117 0.74194,2.328512 1.01582,2.710218 l -1.76382,0 c -0.21538,-0.292282 -0.50791,-1.128416 -0.8591,-2.35774 -0.39308,-1.36085 -1.11509,-1.875823 -2.6621,-1.917577 l -1.60372,0 0,4.275317 -1.70177,0 0,-9.736812 c 0.86125,-0.118305 2.11361,-0.205293 3.26962,-0.205293 z m 0.11413,0.995846 c -0.82159,0 -1.3874,0.06263 -1.68215,0.100907 l 0,3.602721 1.74092,0 c 1.82081,0 2.97564,-0.74497 2.97564,-1.871995 0,-1.274906 -1.23451,-1.831981 -3.03441,-1.831981 z"
       style="display:inline;fill:#eb192d;fill-opacity:1;fill-rule:nonzero;stroke:none" />
  </g>
  <g
     transform="translate(0,128)"
     style="display:inline"
     id="layer8">
    <path
       transform="matrix(3.4795456,0,0,3.4795456,1.8194852,-128.9364)"
       id="path4246"
       d="m 142.58867,7.3112 c -0.17233,0 -0.46074,0.043 -0.73408,0.1076 0,0 -4.21358,0.999 -5.70652,1.3535 -1.18837,0.2825 -2.01828,1.3279 -2.01828,2.5421 0,1.4395 1.17147,2.6106 2.61155,2.6106 0.12248,0 0.26411,4e-4 0.4149,0 l 0,14.9248 c -0.2319,0.057 -0.48275,0.1273 -0.76693,0.2159 -0.83795,0.2651 -1.47119,0.8723 -1.76292,1.6213 0.005,-0.07 0.0126,-0.1381 0.0126,-0.2095 0,-1.4399 -1.17053,-2.6115 -2.61061,-2.6115 -0.35025,0 -0.67723,0.068 -1.05512,0.1471 -0.65606,0.1363 -1.55359,0.3238 -3.28084,0.3238 -1.40104,0 -3.1055,-0.4409 -3.83847,-2.3713 l 8.19416,0 c 0.79062,0 1.49858,-0.2405 2.04829,-0.6965 0.4524,-0.3761 1.01534,-1.091 1.12648,-2.3646 0.0751,-0.8543 0.0696,-1.2603 0.0647,-1.6532 -0.001,-0.093 -0.002,-0.1892 -0.002,-0.2919 0,-1.771 -0.74476,-3.6579 -1.99199,-5.0457 -1.17273,-1.3055 -3.40153,-2.8611 -7.36432,-2.8611 -3.29711,0 -6.03598,1.2126 -7.92003,3.5051 -0.0361,0.043 -0.0669,0.093 -0.1024,0.1363 0.064,-0.2396 0.0902,-0.465 0.0902,-0.6506 0,-1.4395 -1.17179,-2.6115 -2.61246,-2.6115 l -6.66121,0 c -1.4401,0 -2.61249,1.172 -2.61249,2.6115 0,0.7426 0.42081,2.1117 1.99667,2.5383 0.0716,0.02 0.14525,0.039 0.22154,0.059 l -1.62211,6.0699 c -0.67288,-3.1198 -1.56839,-7.2687 -1.77325,-8.2101 -0.22349,-1.0292 -0.76996,-1.8227 -1.62306,-2.3582 -0.80146,-0.5021 -1.86598,-0.7565 -3.16728,-0.7565 -1.300692,0 -2.366415,0.2544 -3.167258,0.7565 -0.853117,0.5355 -1.399912,1.329 -1.623996,2.3582 -0.200663,0.9222 -1.037712,4.9165 -1.685951,8.0111 l -1.457852,-5.8698 c 0.07621,-0.022 0.147046,-0.039 0.219655,-0.059 1.575864,-0.4272 1.997617,-1.7963 1.997617,-2.5383 0,-1.44 -1.172386,-2.6115 -2.612466,-2.6115 l -8.090907,0 c -1.440081,0 -2.612466,1.1715 -2.612466,2.6115 0,0.742 0.420802,2.1108 1.996666,2.5374 0.161034,0.043 0.316687,0.086 0.527572,0.1363 l 4.270263,12.7338 c 0.320829,0.9583 0.9485,1.7385 1.813631,2.2577 0.852507,0.51 1.920669,0.7687 3.175705,0.7687 2.600791,0 4.66856,-1.2325 5.027818,-2.9963 0.150273,-0.7384 0.791949,-3.4986 1.317049,-5.7366 0.73596,2.2344 1.65966,5.0265 1.94504,5.8501 0.59657,1.7237 2.63522,2.8828 5.07381,2.8828 1.25504,0 2.32286,-0.2591 3.17477,-0.7696 0.86393,-0.5186 1.4894,-1.2985 1.81082,-2.2568 0.28778,-0.8579 1.79905,-5.3796 4.25807,-12.7405 0.19704,-0.048 0.34559,-0.09 0.4994,-0.1309 0.38187,-0.104 0.69522,-0.2627 0.95187,-0.4544 -0.93478,1.7038 -1.43813,3.7219 -1.43813,5.8492 0,2.8929 0.83081,5.4014 2.40126,7.2537 0.89156,1.0501 2.00741,1.8653 3.31653,2.4228 1.39501,0.5941 3.01417,0.8945 4.81472,0.8945 3.21721,0 5.67897,-0.5982 7.3155,-1.7789 0.52565,-0.3794 0.89879,-0.8491 1.10114,-1.3686 -0.005,0.07 -0.0179,0.1363 -0.0179,0.2075 0,1.4401 1.17173,2.6115 2.6106,2.6115 l 4.76969,0 c 0.90838,0 1.82304,-0.4385 2.29707,-1.3883 1.12526,0.7262 2.98187,1.5855 5.46433,1.5855 2.28297,0 4.33089,-1.053 5.76378,-2.9646 1.43466,-1.9135 2.19286,-4.5657 2.19286,-7.6693 0,-6.494 -3.10395,-10.6902 -7.90783,-10.6902 -1.95557,0 -3.40609,0.5735 -4.43643,1.2493 l 0,-4.4205 c 0,-1.44 -1.17145,-2.6104 -2.61155,-2.6104 z M 30.626683,7.7148 c -0.731158,0 -1.416086,0.3078 -1.900925,0.8233 -1.228603,-0.4169 -3.002496,-0.8139 -4.770614,-0.8139 -2.639848,0 -5.054429,0.6183 -6.797316,1.7423 -2.096138,1.3517 -3.203877,3.3691 -3.203877,5.8323 0,2.0415 0.690273,3.8017 2.049245,5.2352 1.024336,1.0803 2.387288,1.962 4.289988,2.7749 3.638343,1.5536 5.332831,2.5516 5.120744,4.0186 -0.22168,1.5333 -1.845604,1.9385 -2.673489,1.9385 -0.886758,0 -2.498398,-0.5711 -3.230166,-0.8758 -0.33643,-1.4425 -0.457796,-1.9598 -0.510661,-2.1666 l 0.0036,0 c -0.269757,-1.1764 -1.340052,-2.0305 -2.545828,-2.0305 -1.439489,0 -2.610601,1.171 -2.610601,2.6117 l 0,4.826 9.69e-4,0.018 c 0.02762,1.4113 1.199768,2.56 2.613416,2.56 0.687296,0 1.339551,-0.2767 1.820193,-0.7434 1.378196,0.6229 3.379525,1.1639 5.342281,1.1639 2.981712,0 5.484234,-0.7875 7.238526,-2.2792 1.79516,-1.5255 2.74391,-3.7159 2.74391,-6.3335 0,-2.4693 -0.749485,-4.4031 -2.290489,-5.9141 -1.451503,-1.4226 -3.492033,-2.3522 -5.481239,-3.1446 -3.309122,-1.317 -3.669474,-1.6963 -3.669474,-2.6275 0,-1.3085 1.680052,-1.6579 2.672557,-1.6579 0.60018,0 1.558165,0.2091 2.674422,0.5793 0.123734,0.5286 0.248275,1.0603 0.349216,1.4916 0.12732,0.5424 0.189653,0.8096 0.2281,0.9556 l -0.0036,0 c 0.269757,1.1756 1.340663,2.0296 2.545829,2.0296 1.439488,0 2.609668,-1.1721 2.609668,-2.6117 l 0,-4.8249 0,-0.018 C 33.212738,8.8627 32.040349,7.715 30.626701,7.715 Z m 43.654558,5.378 c -2.572548,0 -4.345131,0.9857 -5.466194,1.9553 -0.339442,-1.049 -1.325294,-1.809 -2.484822,-1.809 -0.173048,0 -0.46106,0.043 -0.735014,0.1076 -1.262245,0.2993 -1.989763,0.4709 -2.680071,0.6337 -0.65005,0.1525 -1.266225,0.2972 -2.262335,0.5332 -1.188345,0.2824 -2.018257,1.3282 -2.018257,2.543 0,1.4394 1.171453,2.6106 2.611533,2.6106 l 0.281628,0 0,9.1835 c -0.304599,0.07 -0.512777,0.1202 -0.878652,0.2132 -1.044437,0.2688 -1.789153,1.0769 -1.964765,2.0811 -0.172151,-0.9926 -0.898449,-1.7834 -1.948787,-2.0764 -0.288389,-0.081 -0.462118,-0.122 -0.656165,-0.1632 l 0,-10.0689 c 0.267337,-0.063 0.444868,-0.1094 0.638323,-0.1632 1.576456,-0.4271 1.996666,-1.797 1.996666,-2.5383 0,-1.4407 -1.172385,-2.6124 -2.612466,-2.6124 l -8.089956,0 c -1.440081,0 -2.612466,1.1717 -2.612466,2.6124 0,0.7413 0.420802,2.1112 1.996666,2.5383 0.193455,0.052 0.371919,0.1005 0.639273,0.1632 l 0,7.1983 c 0,1.535 -0.566198,2.1056 -2.086795,2.1056 -1.393223,0 -2.037606,-0.65 -2.08866,-2.1076 l 0,-9.544 c 0,-0.7996 -0.309406,-1.549 -0.871138,-2.1103 -0.561141,-0.5604 -1.310286,-0.8692 -2.109318,-0.8692 l -5.094473,0 c -1.440081,0 -2.611551,1.1782 -2.611551,2.6266 0,0.8574 0.486936,1.9699 1.554543,2.3843 0.337039,0.1309 0.724541,0.2337 1.066386,0.3136 l 0,9.0821 c 0,1.5327 0.71077,3.1891 1.900926,4.4309 0.997311,1.0405 2.786446,2.281 5.647383,2.281 2.645264,0 4.452833,-1.044 5.575097,-2.0389 0.401328,0.9355 1.338135,1.6268 2.370289,1.6268 l 4.825056,0 c 1.288785,0 2.35978,-0.9386 2.571167,-2.1675 0.211316,1.2289 1.28163,2.1675 2.569303,2.1675 l 8.082443,0 c 1.026738,0 1.915899,-0.5948 2.343067,-1.4568 0.426558,0.862 1.31597,1.4568 2.342116,1.4568 l 8.083376,0 c 1.438879,0 2.609668,-1.171 2.609668,-2.6106 0,-1.2117 -0.805954,-2.2322 -2.00513,-2.541 -0.364674,-0.093 -0.559958,-0.1417 -0.864558,-0.2123 l 0,-9.0484 c 0,-1.5319 -0.713817,-3.1871 -1.909371,-4.4307 -1.000306,-1.0399 -2.79301,-2.2792 -5.653965,-2.2792 z m 51.609339,5.8971 c 0.81587,0 1.35069,0.8729 1.55736,1.9008 l -3.56154,0 c 0.41395,-1.2076 1.12765,-1.9008 2.00418,-1.9008 z m -54.216173,0.5894 c 0.869937,0 2.032495,0.2189 2.096173,2.1065 l 0,7.2836 c -0.112436,0.025 -0.229015,0.056 -0.385816,0.1022 -0.654246,0.1946 -1.339784,0.6381 -1.705659,1.3602 -0.366485,-0.7221 -1.051413,-1.1656 -1.705677,-1.3602 -0.156192,-0.047 -0.272519,-0.075 -0.384884,-0.1022 l 0,-7.3033 c 0,-1.5019 0.585099,-2.0868 2.085863,-2.0868 z m 75.818173,0 c 0.52507,0 0.91198,0.2121 1.21658,0.6674 0.32503,0.4862 0.7125,1.4992 0.7125,3.5654 0,2.8717 -0.66551,4.3276 -1.97883,4.3276 -0.89757,0 -1.73917,-0.312 -2.24263,-0.5464 l 0,-7.0274 c 0.55394,-0.4445 1.45248,-0.9866 2.29238,-0.9866 z"
       style="display:inline;fill:#ffffff;fill-opacity:1;fill-rule:nonzero;stroke:none;stroke-opacity:1;filter:url(#filter7906)" />
  </g>
  <g
     transform="translate(0,128)"
     style="display:inline"
     id="layer7">
    <path
       id="path4488"
       d="m 497.9665,-100.39368 c -0.26967,0 -1.01645,0.087 -1.84218,0.28532 -8.52701,2.023354 -12.70765,3.013632 -19.85286,4.712694 -2.72807,0.6465 -4.6382,2.981275 -4.6382,5.824064 0,3.303132 2.67894,5.980643 5.98395,5.980643 1.2731,0 3.19005,0 4.54672,0 l 0,57.51654 c -1.49258,0.316639 -2.93597,0.625275 -4.83416,1.225148 -2.60886,0.826044 -4.59575,3.045298 -4.59575,5.886347 0,3.300697 2.67772,5.979947 5.98068,5.979947 l 16.59628,0 c 3.34684,0 6.04599,-2.259964 6.04599,-7.143159 2.7051,2.619402 10.04071,7.832805 20.96343,7.832805 14.07925,0 24.5793,-12.894848 24.57923,-33.898081 0,-20.722781 -9.4136,-34.093631 -24.41267,-34.093631 -10.09903,0 -15.78656,4.777764 -18.53975,8.139701 l 0,-22.277095 c -3e-5,-3.304872 -2.67768,-5.980643 -5.98071,-5.980643 z m -389.58007,1.407471 c -2.42705,0 -4.50523,1.436357 -5.44174,3.508078 -3.846442,-1.601287 -10.954232,-3.478502 -17.775432,-3.478502 -16.320217,0 -31.693316,7.102449 -31.693316,23.253108 0,13.870164 10.014477,20.674068 20.176204,25.013757 12.250085,5.23428 20.791312,9.509598 19.666615,17.281859 -0.93439,6.478218 -7.192712,9.410083 -12.372882,9.410083 -4.943936,0 -13.603405,-3.710587 -13.921129,-3.978512 -1.009702,-4.327163 -2.107074,-9.009936 -2.113375,-9.024202 -0.608367,-2.656981 -2.991543,-4.654936 -5.830403,-4.654936 -3.305026,0 -5.980657,2.681338 -5.980657,5.983775 l 0,16.792982 c 0.06489,3.245721 2.732598,5.859555 5.993698,5.859555 2.389418,0 4.438835,-1.399473 5.402548,-3.423177 3.739868,2.130178 11.475618,4.889458 19.519669,4.889458 19.63361,0 31.62799,-10.225341 31.62799,-26.865572 0,-16.633619 -10.40626,-22.791023 -25.085515,-28.635616 -11.303088,-4.498705 -14.724671,-6.506054 -14.724671,-12.027049 0,-6.296238 6.523942,-8.87145 12.402332,-8.87145 3.779552,0 9.252487,1.780136 11.945024,2.737359 1.0975,4.705389 2.38143,10.193677 2.38767,10.203767 0.60837,2.657329 2.99486,4.654936 5.83372,4.654936 3.30502,0 5.97741,-2.67577 5.97741,-5.980991 l 0,-16.791939 c -0.0668,-3.246764 -2.72636,-5.856771 -5.99376,-5.856771 z m 331.61234,18.572423 c -22.90728,0 -33.13711,17.864335 -33.13711,34.907149 0,17.04177 9.13506,33.679218 33.5454,33.679218 13.39771,0 20.17339,-3.104799 23.63519,-5.6052 1.95672,-1.408868 3.15859,-3.254419 3.15859,-5.457668 0,-3.252679 -2.67775,-5.980643 -5.98071,-5.980643 -2.62559,0 -5.45227,1.633299 -15.0872,1.633299 -8.36396,0 -15.67988,-4.080463 -17.36057,-14.453336 l 32.51639,0 c 3.62276,0 7.44139,-1.950634 7.95354,-7.816452 0.3076,-3.522344 0.20599,-4.638582 0.20599,-6.496659 0,-8.748622 -6.54419,-24.409708 -29.44934,-24.409708 z m -179.71756,0.135702 c -15.54463,0 -21.68196,11.591758 -21.68196,11.591758 l 0,-5.09823 c 0,-3.30696 -2.6757,-5.983775 -5.98072,-5.983775 -0.27207,0 -1.01532,0.09395 -1.83896,0.285323 -8.52694,2.024052 -10.0521,2.364699 -17.19726,4.06063 -2.72804,0.647543 -4.63495,2.98371 -4.63495,5.826499 0,3.303481 2.67451,5.977859 5.97741,5.977859 l 4.08948,0 0,37.530031 c -2.85352,0.666681 -3.43188,0.773155 -5.39276,1.277341 -2.76779,0.710871 -4.64474,2.992757 -4.64474,5.833458 0,3.300697 2.67451,5.983775 5.97741,5.983775 l 28.12323,0 c 3.3029,0 5.98396,-2.683078 5.98396,-5.983775 0,-3.491028 -2.59638,-5.223146 -4.65129,-5.833458 -1.27938,-0.380662 -1.64334,-0.393189 -3.56029,-0.836831 l 0,-27.907347 c 0,-4.099601 1.1159,-10.367306 10.36408,-10.367306 9.6391,0 10.31941,7.873168 10.39678,10.38366 l 0,27.890993 c -1.91695,0.443295 -2.28216,0.455473 -3.5636,0.836831 -2.05491,0.611704 -4.65129,2.34243 -4.65129,5.833458 0,3.300697 2.67893,5.983775 5.98396,5.983775 l 28.12323,0 c 3.3029,0 5.98066,-2.683078 5.98066,-5.983775 0,-2.840701 -1.8802,-5.122587 -4.64799,-5.833458 -1.96088,-0.50523 -2.48376,-0.611356 -5.33723,-1.277341 l 0,-33.947491 c 0,-8.386748 -7.67247,-20.247475 -23.21716,-20.247475 z m 89.99431,1.02577 c -7.98977,0 -12.45587,2.961789 -13.63698,8.390924 -1.1811,5.432963 -8.64275,41.136232 -8.64275,41.136232 l -9.10329,-36.651793 c 1.88351,-0.399104 2.72973,-0.628406 3.72689,-0.897723 4.20185,-1.139551 4.65778,-4.820215 4.65778,-5.834154 0,-3.302785 -2.68006,-5.983775 -5.9872,-5.983775 l -28.15262,0 c -3.30709,0 -5.9839,2.68099 -5.9839,5.983775 0,1.013939 0.45487,4.694603 4.65454,5.834154 0.94069,0.257486 1.74392,0.474262 3.41004,0.829176 0,0 13.65999,40.733648 15.4139,45.964449 1.76221,5.255157 6.66409,8.413541 14.41762,8.413541 7.50476,0 13.51911,-3.358805 14.45356,-7.943803 0.93445,-4.586041 7.13044,-30.781452 7.13044,-30.781452 0,0 8.48636,25.852328 10.19423,30.781452 1.52818,4.421459 7.21456,7.943803 14.72143,7.943803 7.75142,0 12.64231,-3.158384 14.40459,-8.413541 1.65564,-4.936084 13.98214,-41.838752 15.36822,-45.983935 1.60334,-0.349346 2.39458,-0.561599 3.31854,-0.80969 4.20183,-1.137464 4.65452,-4.817779 4.65452,-5.834154 0,-3.302785 -2.67681,-5.983775 -5.98391,-5.983775 l -23.18129,0 c -3.3071,0 -5.98392,2.68099 -5.98392,5.983775 0,1.016375 0.45238,4.69669 4.65456,5.834154 0.92183,0.250527 2.1697,0.561598 3.78567,0.910945 l -9.79579,36.638571 c 0,0 -7.69679,-35.703269 -8.87792,-41.136232 -1.18109,-5.429135 -5.6472,-8.390924 -13.63696,-8.390924 z m -223.94051,0.424157 c -3.30502,0 -5.98396,2.732835 -5.98396,6.036315 0,1.496901 0.8124,4.387707 3.42969,5.405474 1.90229,0.736272 4.55159,1.227236 5.68671,1.493073 l 0,34.0905 c 0,8.387097 7.61813,20.251304 23.16488,20.251304 15.54469,0 21.78647,-11.595238 21.78647,-11.595238 l 0,4.161188 c 0,3.190048 2.79313,6.000129 5.85986,6.000129 l 16.789,0 c 3.30503,0 5.98396,-2.679946 5.98396,-5.980643 0,-2.842789 -1.81661,-5.043601 -4.65129,-5.833458 -1.78735,-0.499315 -2.13577,-0.511494 -4.55652,-1.071352 l 0,-40.02243 c 2.45419,-0.505578 3.39057,-0.76202 4.51734,-1.065089 4.20179,-1.136767 4.65453,-4.821954 4.65453,-5.833458 0,-3.30348 -2.68012,-5.987602 -5.9872,-5.987602 l -28.14937,0 c -3.30503,0 -5.98721,2.684122 -5.98721,5.987602 0,1.011504 0.45487,4.696691 4.65454,5.833458 1.12676,0.3062 2.06108,0.555336 4.51739,1.065089 l 0,27.545127 c 0,6.90481 -3.15084,10.428894 -10.36084,10.428894 -9.76246,0 -10.2957,-7.8676 -10.37719,-10.380528 l 0,-33.264108 c 0,-4.040796 -3.22765,-7.264247 -7.26434,-7.264247 l -17.72645,0 z m 313.52652,12.866315 c 5.64633,0 8.76933,6.371396 8.85506,12.820038 l -19.79075,0 c 1.5365,-9.045079 6.2343,-12.820038 10.93569,-12.820038 z m 75.16508,2.050845 c 5.07982,0 9.81865,3.925275 9.81858,17.831279 0,14.317286 -4.84496,18.164272 -9.99169,18.164272 -5.2387,0 -9.82766,-2.493443 -10.90636,-3.123241 l 0,-27.753899 c 0.62507,-0.592915 5.56272,-5.118411 11.07947,-5.118411 z"
       style="display:inline;fill:#eb192d;fill-opacity:1;fill-rule:nonzero;stroke:none;stroke-width:8.5;stroke-linecap:butt;stroke-linejoin:round;stroke-miterlimit:0.69999999;stroke-dasharray:none;stroke-opacity:1" />
  </g>
</svg>
